<svg width="40" height="40" viewBox="0 0 40 40" fill="none" xmlns="http://www.w3.org/2000/svg">
<path d="M28.75 35H11.25C9.59301 34.998 8.00445 34.3389 6.83277 33.1672C5.6611 31.9956 5.00198 30.407 5 28.75L5 11.25C5.00198 9.59301 5.6611 8.00445 6.83277 6.83277C8.00445 5.6611 9.59301 5.00198 11.25 5L28.75 5C30.407 5.00198 31.9956 5.6611 33.1672 6.83277C34.3389 8.00445 34.998 9.59301 35 11.25V28.75C34.998 30.407 34.3389 31.9956 33.1672 33.1672C31.9956 34.3389 30.407 34.998 28.75 35ZM11.25 7.5C10.2554 7.5 9.30161 7.89509 8.59835 8.59835C7.89509 9.30161 7.5 10.2554 7.5 11.25V28.75C7.5 29.7446 7.89509 30.6984 8.59835 31.4017C9.30161 32.1049 10.2554 32.5 11.25 32.5H28.75C29.7446 32.5 30.6984 32.1049 31.4017 31.4017C32.1049 30.6984 32.5 29.7446 32.5 28.75V11.25C32.5 10.2554 32.1049 9.30161 31.4017 8.59835C30.6984 7.89509 29.7446 7.5 28.75 7.5H11.25ZM18.75 20C18.75 20.2472 18.8233 20.4889 18.9607 20.6945C19.098 20.9 19.2932 21.0602 19.5216 21.1549C19.7501 21.2495 20.0014 21.2742 20.2439 21.226C20.4863 21.1777 20.7091 21.0587 20.8839 20.8839C21.0587 20.7091 21.1777 20.4863 21.226 20.2439C21.2742 20.0014 21.2495 19.7501 21.1549 19.5216C21.0602 19.2932 20.9 19.098 20.6945 18.9607C20.4889 18.8233 20.2472 18.75 20 18.75C19.6685 18.75 19.3505 18.8817 19.1161 19.1161C18.8817 19.3505 18.75 19.6685 18.75 20ZM12.5 13.75C12.5 13.9972 12.5733 14.2389 12.7107 14.4445C12.848 14.65 13.0432 14.8102 13.2716 14.9049C13.5001 14.9995 13.7514 15.0242 13.9939 14.976C14.2363 14.9278 14.4591 14.8087 14.6339 14.6339C14.8087 14.4591 14.9278 14.2363 14.976 13.9939C15.0242 13.7514 14.9995 13.5001 14.9049 13.2716C14.8102 13.0432 14.65 12.848 14.4445 12.7107C14.2389 12.5733 13.9972 12.5 13.75 12.5C13.4185 12.5 13.1005 12.6317 12.8661 12.8661C12.6317 13.1005 12.5 13.4185 12.5 13.75ZM25 13.75C25 13.9972 25.0733 14.2389 25.2107 14.4445C25.348 14.65 25.5432 14.8102 25.7716 14.9049C26.0001 14.9995 26.2514 15.0242 26.4939 14.976C26.7363 14.9278 26.9591 14.8087 27.1339 14.6339C27.3087 14.4591 27.4277 14.2363 27.476 13.9939C27.5242 13.7514 27.4995 13.5001 27.4049 13.2716C27.3102 13.0432 27.15 12.848 26.9445 12.7107C26.7389 12.5733 26.4972 12.5 26.25 12.5C25.9185 12.5 25.6005 12.6317 25.3661 12.8661C25.1317 13.1005 25 13.4185 25 13.75ZM12.5 26.25C12.5 26.4972 12.5733 26.7389 12.7107 26.9445C12.848 27.15 13.0432 27.3102 13.2716 27.4049C13.5001 27.4995 13.7514 27.5242 13.9939 27.476C14.2363 27.4277 14.4591 27.3087 14.6339 27.1339C14.8087 26.9591 14.9278 26.7363 14.976 26.4939C15.0242 26.2514 14.9995 26.0001 14.9049 25.7716C14.8102 25.5432 14.65 25.348 14.4445 25.2107C14.2389 25.0733 13.9972 25 13.75 25C13.4185 25 13.1005 25.1317 12.8661 25.3661C12.6317 25.6005 12.5 25.9185 12.5 26.25ZM25 26.25C25 26.4972 25.0733 26.7389 25.2107 26.9445C25.348 27.15 25.5432 27.3102 25.7716 27.4049C26.0001 27.4995 26.2514 27.5242 26.4939 27.476C26.7363 27.4277 26.9591 27.3087 27.1339 27.1339C27.3087 26.9591 27.4277 26.7363 27.476 26.4939C27.5242 26.2514 27.4995 26.0001 27.4049 25.7716C27.3102 25.5432 27.15 25.348 26.9445 25.2107C26.7389 25.0733 26.4972 25 26.25 25C25.9185 25 25.6005 25.1317 25.3661 25.3661C25.1317 25.6005 25 25.9185 25 26.25Z" fill="#1769FF"/>
</svg>
