<svg width="30" height="30" viewBox="0 0 30 30" fill="none" xmlns="http://www.w3.org/2000/svg">
<path fill-rule="evenodd" clip-rule="evenodd" d="M2.5 0H5.625C6.28804 0 6.92393 0.263392 7.39277 0.732233C7.86161 1.20107 8.125 1.83696 8.125 2.5V5.625C8.125 6.28804 7.86161 6.92393 7.39277 7.39277C6.92393 7.86161 6.28804 8.125 5.625 8.125H2.5C1.83696 8.125 1.20107 7.86161 0.732233 7.39277C0.263392 6.92393 0 6.28804 0 5.625V2.5C0 1.83696 0.263392 1.20107 0.732233 0.732233C1.20107 0.263392 1.83696 0 2.5 0ZM2.5 5.625H5.625V2.5H2.5V5.625Z" fill="#1769FF"/>
<path fill-rule="evenodd" clip-rule="evenodd" d="M2.5 10.9371H5.625C6.28804 10.9371 6.92393 11.2005 7.39277 11.6694C7.86161 12.1382 8.125 12.7741 8.125 13.4371V16.5621C8.125 17.2251 7.86161 17.861 7.39277 18.3299C6.92393 18.7987 6.28804 19.0621 5.625 19.0621H2.5C1.83696 19.0621 1.20107 18.7987 0.732233 18.3299C0.263392 17.861 0 17.2251 0 16.5621V13.4371C0 12.7741 0.263392 12.1382 0.732233 11.6694C1.20107 11.2005 1.83696 10.9371 2.5 10.9371ZM2.5 16.5621H5.625V13.4371H2.5V16.5621Z" fill="#1769FF"/>
<path fill-rule="evenodd" clip-rule="evenodd" d="M5.625 21.8754H2.5C1.83696 21.8754 1.20107 22.1388 0.732233 22.6076C0.263392 23.0765 0 23.7123 0 24.3754V27.5004C0 28.1634 0.263392 28.7993 0.732233 29.2681C1.20107 29.737 1.83696 30.0004 2.5 30.0004H5.625C6.28804 30.0004 6.92393 29.737 7.39277 29.2681C7.86161 28.7993 8.125 28.1634 8.125 27.5004V24.3754C8.125 23.7123 7.86161 23.0765 7.39277 22.6076C6.92393 22.1388 6.28804 21.8754 5.625 21.8754ZM5.625 27.5004H2.5V24.3754H5.625V27.5004Z" fill="#1769FF"/>
<path fill-rule="evenodd" clip-rule="evenodd" d="M27.5001 21.8754H24.3751C23.7121 21.8754 23.0762 22.1388 22.6073 22.6076C22.1385 23.0765 21.8751 23.7123 21.8751 24.3754V27.5004C21.8751 28.1634 22.1385 28.7993 22.6073 29.2681C23.0762 29.737 23.7121 30.0004 24.3751 30.0004H27.5001C28.1631 30.0004 28.799 29.737 29.2679 29.2681C29.7367 28.7993 30.0001 28.1634 30.0001 27.5004V24.3754C30.0001 23.7123 29.7367 23.0765 29.2679 22.6076C28.799 22.1388 28.1631 21.8754 27.5001 21.8754ZM27.5001 27.5004H24.3751V24.3754H27.5001V27.5004Z" fill="#1769FF"/>
<path fill-rule="evenodd" clip-rule="evenodd" d="M27.5001 10.9371H24.3751C23.7121 10.9371 23.0762 11.2005 22.6073 11.6694C22.1385 12.1382 21.8751 12.7741 21.8751 13.4371V16.5621C21.8751 17.2251 22.1385 17.861 22.6073 18.3299C23.0762 18.7987 23.7121 19.0621 24.3751 19.0621H27.5001C28.1631 19.0621 28.799 18.7987 29.2679 18.3299C29.7367 17.861 30.0001 17.2251 30.0001 16.5621V13.4371C30.0001 12.7741 29.7367 12.1382 29.2679 11.6694C28.799 11.2005 28.1631 10.9371 27.5001 10.9371ZM27.5001 16.5621H24.3751V13.4371H27.5001V16.5621Z" fill="#1769FF"/>
<path fill-rule="evenodd" clip-rule="evenodd" d="M16.5624 21.8754H13.4374C12.7744 21.8754 12.1385 22.1388 11.6697 22.6076C11.2008 23.0765 10.9374 23.7123 10.9374 24.3754V27.5004C10.9374 28.1634 11.2008 28.7993 11.6697 29.2681C12.1385 29.737 12.7744 30.0004 13.4374 30.0004H16.5624C17.2255 30.0004 17.8613 29.737 18.3302 29.2681C18.799 28.7993 19.0624 28.1634 19.0624 27.5004V24.3754C19.0624 23.7123 18.799 23.0765 18.3302 22.6076C17.8613 22.1388 17.2255 21.8754 16.5624 21.8754ZM16.5624 27.5004H13.4374V24.3754H16.5624V27.5004Z" fill="#1769FF"/>
<path fill-rule="evenodd" clip-rule="evenodd" d="M13.4374 10.9371H16.5624C17.2255 10.9371 17.8613 11.2005 18.3302 11.6694C18.799 12.1382 19.0624 12.7741 19.0624 13.4371V16.5621C19.0624 17.2251 18.799 17.861 18.3302 18.3299C17.8613 18.7987 17.2255 19.0621 16.5624 19.0621H13.4374C12.7744 19.0621 12.1385 18.7987 11.6697 18.3299C11.2008 17.861 10.9374 17.2251 10.9374 16.5621V13.4371C10.9374 12.7741 11.2008 12.1382 11.6697 11.6694C12.1385 11.2005 12.7744 10.9371 13.4374 10.9371ZM13.4374 16.5621H16.5624V13.4371H13.4374V16.5621Z" fill="#1769FF"/>
<path fill-rule="evenodd" clip-rule="evenodd" d="M16.5624 0H13.4374C12.7744 0 12.1385 0.263392 11.6697 0.732233C11.2008 1.20107 10.9374 1.83696 10.9374 2.5V5.625C10.9374 6.28804 11.2008 6.92393 11.6697 7.39277C12.1385 7.86161 12.7744 8.125 13.4374 8.125H16.5624C17.2255 8.125 17.8613 7.86161 18.3302 7.39277C18.799 6.92393 19.0624 6.28804 19.0624 5.625V2.5C19.0624 1.83696 18.799 1.20107 18.3302 0.732233C17.8613 0.263392 17.2255 0 16.5624 0ZM16.5624 5.625H13.4374V2.5H16.5624V5.625Z" fill="#1769FF"/>
<path fill-rule="evenodd" clip-rule="evenodd" d="M24.3751 0H27.5001C28.1631 0 28.799 0.263392 29.2679 0.732233C29.7367 1.20107 30.0001 1.83696 30.0001 2.5V5.625C30.0001 6.28804 29.7367 6.92393 29.2679 7.39277C28.799 7.86161 28.1631 8.125 27.5001 8.125H24.3751C23.7121 8.125 23.0762 7.86161 22.6073 7.39277C22.1385 6.92393 21.8751 6.28804 21.8751 5.625V2.5C21.8751 1.83696 22.1385 1.20107 22.6073 0.732233C23.0762 0.263392 23.7121 0 24.3751 0ZM24.3751 5.625H27.5001V2.5H24.3751V5.625Z" fill="#1769FF"/>
</svg>
