<svg width="40" height="43" viewBox="0 0 40 43" fill="none" xmlns="http://www.w3.org/2000/svg">
<g filter="url(#filter0_d_1656_67)">
<path d="M28.75 5H11.25C9.59301 5.00198 8.00445 5.6611 6.83277 6.83277C5.6611 8.00445 5.00198 9.59301 5 11.25L5 28.75C5.00198 30.407 5.6611 31.9956 6.83277 33.1672C8.00445 34.3389 9.59301 34.998 11.25 35H28.75C30.407 34.998 31.9956 34.3389 33.1672 33.1672C34.3389 31.9956 34.998 30.407 35 28.75V11.25C34.998 9.59301 34.3389 8.00445 33.1672 6.83277C31.9956 5.6611 30.407 5.00198 28.75 5V5ZM25 18.75H21.25V15H25V18.75ZM27.5 15H32.5V18.75H27.5V15ZM21.25 12.5V7.5H25V12.5H21.25ZM18.75 12.5H15V7.5H18.75V12.5ZM18.75 15V18.75H15V15H18.75ZM12.5 18.75H7.5V15H12.5V18.75ZM7.5 21.25H12.5V25H7.5V21.25ZM15 21.25H18.75V25H15V21.25ZM18.75 27.5V32.5H15V27.5H18.75ZM21.25 27.5H25V32.5H21.25V27.5ZM21.25 25V21.25H25V25H21.25ZM27.5 21.25H32.5V25H27.5V21.25ZM32.5 11.25V12.5H27.5V7.5H28.75C29.7446 7.5 30.6984 7.89509 31.4017 8.59835C32.1049 9.30161 32.5 10.2554 32.5 11.25ZM11.25 7.5H12.5V12.5H7.5V11.25C7.5 10.2554 7.89509 9.30161 8.59835 8.59835C9.30161 7.89509 10.2554 7.5 11.25 7.5ZM7.5 28.75V27.5H12.5V32.5H11.25C10.2554 32.5 9.30161 32.1049 8.59835 31.4017C7.89509 30.6984 7.5 29.7446 7.5 28.75ZM28.75 32.5H27.5V27.5H32.5V28.75C32.5 29.7446 32.1049 30.6984 31.4017 31.4017C30.6984 32.1049 29.7446 32.5 28.75 32.5Z" fill="white"/>
</g>
<defs>
<filter id="filter0_d_1656_67" x="-4" y="0" width="48" height="48" filterUnits="userSpaceOnUse" color-interpolation-filters="sRGB">
<feFlood flood-opacity="0" result="BackgroundImageFix"/>
<feColorMatrix in="SourceAlpha" type="matrix" values="0 0 0 0 0 0 0 0 0 0 0 0 0 0 0 0 0 0 127 0" result="hardAlpha"/>
<feOffset dy="4"/>
<feGaussianBlur stdDeviation="2"/>
<feComposite in2="hardAlpha" operator="out"/>
<feColorMatrix type="matrix" values="0 0 0 0 0 0 0 0 0 0 0 0 0 0 0 0 0 0 0.25 0"/>
<feBlend mode="normal" in2="BackgroundImageFix" result="effect1_dropShadow_1656_67"/>
<feBlend mode="normal" in="SourceGraphic" in2="effect1_dropShadow_1656_67" result="shape"/>
</filter>
</defs>
</svg>
